<?xml version="1.0" encoding="UTF-8" standalone="no"?>
<!DOCTYPE svg PUBLIC "-//W3C//DTD SVG 1.1//EN" "http://www.w3.org/Graphics/SVG/1.1/DTD/svg11.dtd">
<svg width="100%" height="100%" viewBox="0 0 400 400" version="1.1" xmlns="http://www.w3.org/2000/svg" xmlns:xlink="http://www.w3.org/1999/xlink" xml:space="preserve" xmlns:serif="http://www.serif.com/" style="fill-rule:evenodd;clip-rule:evenodd;stroke-linejoin:round;stroke-miterlimit:1.41421;">
    <g transform="matrix(9.11619,0,0,10.5405,-2375.95,-1906.98)">
        <g id="SvgjsG3442" transform="matrix(0.416972,0,0,0.360626,261.721,181.862)">
            <circle cx="50" cy="50" r="50" style="fill:rgb(44,115,148);"/>
        </g>
        <g id="SvgjsG3443" transform="matrix(0.353479,0,0,0.305713,264.972,184.684)">
            <path d="M68.1,35.7C64.5,24.4 57,17.4 48.6,17.4C39.9,17.4 32.3,25.1 28.9,36.3C15.4,39.1 6.4,44.5 6.4,50.9C6.4,55.5 11,59.7 19.4,62.8L18.8,64.7L24.6,63.4L20.6,59L20,60.9C12.6,58.2 8.3,54.5 8.3,50.9C8.3,45.8 16.3,41.1 28.1,38.5C27.2,42.1 26.7,46 26.7,50C26.7,68 36.5,82.6 48.5,82.6C57.9,82.6 66.2,73.6 69.1,60.4L74.1,60.9L69.3,50L62.3,59.7L67.2,60.2C64.4,72.3 56.9,80.6 48.6,80.6C37.7,80.6 28.8,66.9 28.8,50C28.8,45.8 29.4,41.7 30.4,38C36.3,36.9 43,36.2 50,36.2C72.5,36.2 91.6,42.9 91.6,50.8C91.6,54.5 87.3,58.2 79.7,60.9C79.2,61.1 78.9,61.7 79.1,62.2C79.3,62.7 79.9,63 80.4,62.8C88.9,59.7 93.6,55.4 93.6,50.8C93.6,44 83.3,38.3 68.1,35.7ZM31.1,35.8C34.4,26 41,19.4 48.6,19.4C55.8,19.4 62.5,25.6 65.9,35.3C61,34.6 55.6,34.3 50,34.3C43.2,34.3 36.8,34.8 31.1,35.8Z" style="fill:white;fill-rule:nonzero;"/>
        </g>
    </g>
</svg>
