<?xml version="1.0" encoding="UTF-8" standalone="no"?>
<!DOCTYPE svg PUBLIC "-//W3C//DTD SVG 1.1//EN" "http://www.w3.org/Graphics/SVG/1.1/DTD/svg11.dtd">
<svg width="100%" height="100%" viewBox="0 0 400 100" version="1.1" xmlns="http://www.w3.org/2000/svg" xmlns:xlink="http://www.w3.org/1999/xlink" xml:space="preserve" xmlns:serif="http://www.serif.com/" style="fill-rule:evenodd;clip-rule:evenodd;stroke-linejoin:round;stroke-miterlimit:1.41421;">
    <g transform="matrix(2.2812,0,0,2.63763,-584.319,-477.243)">
        <g transform="matrix(0.0920677,0,0,0.0796265,258.965,170.714)">
            <path d="M723.367,285.742C723.367,307.422 715.969,324.097 701.174,335.767C686.379,347.437 665.212,353.272 637.673,353.272L612.478,353.272L612.478,437.5L587.576,437.5L587.576,223.34L643.093,223.34C696.609,223.34 723.367,244.141 723.367,285.742ZM612.478,331.885L634.89,331.885C656.96,331.885 672.927,328.32 682.791,321.191C692.654,314.063 697.585,302.637 697.585,286.914C697.585,272.754 692.947,262.207 683.669,255.273C674.392,248.34 659.939,244.873 640.31,244.873L612.478,244.873L612.478,331.885Z" style="fill:rgb(78,81,85);fill-rule:nonzero;"/>
            <path d="M739.041,276.953L765.115,276.953L800.271,368.506C807.986,389.404 812.771,404.492 814.626,413.77L815.798,413.77C817.068,408.789 819.729,400.269 823.782,388.208C827.834,376.147 841.091,339.063 863.552,276.953L889.626,276.953L820.632,459.766C813.796,477.832 805.813,490.649 796.682,498.218C787.551,505.786 776.345,509.57 763.064,509.57C755.642,509.57 748.318,508.74 741.091,507.08L741.091,487.598C746.462,488.77 752.468,489.355 759.109,489.355C775.808,489.355 787.722,479.98 794.851,461.23L803.787,438.379L739.041,276.953Z" style="fill:rgb(78,81,85);fill-rule:nonzero;"/>
            <path d="M1054.28,357.08C1054.28,383.252 1047.68,403.687 1034.5,418.384C1021.32,433.081 1003.1,440.43 979.861,440.43C965.505,440.43 952.761,437.061 941.628,430.322C930.496,423.584 921.902,413.916 915.847,401.318C909.792,388.721 906.765,373.975 906.765,357.08C906.765,330.908 913.308,310.522 926.394,295.923C939.48,281.323 957.644,274.023 980.886,274.023C1003.35,274.023 1021.19,281.494 1034.43,296.436C1047.66,311.377 1054.28,331.592 1054.28,357.08ZM931.96,357.08C931.96,377.588 936.062,393.213 944.265,403.955C952.468,414.697 964.529,420.068 980.447,420.068C996.365,420.068 1008.45,414.722 1016.7,404.028C1024.95,393.335 1029.08,377.686 1029.08,357.08C1029.08,336.67 1024.95,321.167 1016.7,310.571C1008.45,299.976 996.267,294.678 980.154,294.678C964.236,294.678 952.224,299.902 944.119,310.352C936.013,320.801 931.96,336.377 931.96,357.08Z" style="fill:rgb(78,81,85);fill-rule:nonzero;"/>
            <path d="M1301.54,437.5L1301.54,333.057C1301.54,320.264 1298.81,310.669 1293.34,304.272C1287.87,297.876 1279.37,294.678 1267.85,294.678C1252.71,294.678 1241.53,299.023 1234.3,307.715C1227.08,316.406 1223.46,329.785 1223.46,347.852L1223.46,437.5L1199.15,437.5L1199.15,333.057C1199.15,320.264 1196.41,310.669 1190.94,304.272C1185.48,297.876 1176.93,294.678 1165.31,294.678C1150.08,294.678 1138.92,299.243 1131.84,308.374C1124.76,317.505 1121.22,332.471 1121.22,353.272L1121.22,437.5L1096.9,437.5L1096.9,276.953L1116.68,276.953L1120.63,298.926L1121.8,298.926C1126.39,291.113 1132.86,285.01 1141.21,280.615C1149.56,276.221 1158.91,274.023 1169.27,274.023C1194.36,274.023 1210.77,283.105 1218.48,301.27L1219.66,301.27C1224.44,292.871 1231.38,286.23 1240.46,281.348C1249.54,276.465 1259.89,274.023 1271.51,274.023C1289.67,274.023 1303.27,278.687 1312.31,288.013C1321.34,297.339 1325.86,312.256 1325.86,332.764L1325.86,437.5L1301.54,437.5Z" style="fill:rgb(78,81,85);fill-rule:nonzero;"/>
            <path d="M1443.78,440.43C1420.05,440.43 1401.32,433.203 1387.6,418.75C1373.88,404.297 1367.02,384.229 1367.02,358.545C1367.02,332.666 1373.39,312.109 1386.13,296.875C1398.88,281.641 1415.99,274.023 1437.48,274.023C1457.6,274.023 1473.51,280.64 1485.23,293.872C1496.95,307.105 1502.81,324.561 1502.81,346.24L1502.81,361.621L1392.21,361.621C1392.7,380.469 1397.46,394.775 1406.5,404.541C1415.53,414.307 1428.25,419.189 1444.66,419.189C1461.94,419.189 1479.03,415.576 1495.92,408.35L1495.92,430.029C1487.33,433.74 1479.2,436.401 1471.54,438.013C1463.87,439.624 1454.62,440.43 1443.78,440.43ZM1437.18,294.385C1424.29,294.385 1414.02,298.584 1406.35,306.982C1398.68,315.381 1394.17,327.002 1392.8,341.846L1476.74,341.846C1476.74,326.514 1473.32,314.771 1466.48,306.616C1459.65,298.462 1449.88,294.385 1437.18,294.385Z" style="fill:rgb(78,81,85);fill-rule:nonzero;"/>
            <path d="M1608.42,440.43C1585.18,440.43 1567.19,433.276 1554.45,418.97C1541.7,404.663 1535.33,384.424 1535.33,358.252C1535.33,331.397 1541.8,310.645 1554.74,295.996C1567.68,281.348 1586.11,274.023 1610.04,274.023C1617.75,274.023 1625.47,274.854 1633.18,276.514C1640.9,278.174 1646.95,280.127 1651.35,282.373L1643.88,303.027C1638.5,300.879 1632.64,299.097 1626.3,297.681C1619.95,296.265 1614.33,295.557 1609.45,295.557C1576.83,295.557 1560.53,316.357 1560.53,357.959C1560.53,377.686 1564.5,392.822 1572.46,403.369C1580.42,413.916 1592.21,419.189 1607.84,419.189C1621.22,419.189 1634.94,416.309 1649,410.547L1649,432.08C1638.26,437.647 1624.73,440.43 1608.42,440.43Z" style="fill:rgb(78,81,85);fill-rule:nonzero;"/>
            <path d="M1785.82,437.5L1780.98,414.648L1779.81,414.648C1771.8,424.707 1763.82,431.519 1755.86,435.083C1747.9,438.647 1737.97,440.43 1726.05,440.43C1710.13,440.43 1697.66,436.328 1688.63,428.125C1679.59,419.922 1675.08,408.252 1675.08,393.115C1675.08,360.693 1701,343.701 1752.86,342.139L1780.11,341.26L1780.11,331.299C1780.11,318.701 1777.39,309.399 1771.98,303.394C1766.56,297.388 1757.89,294.385 1745.97,294.385C1732.6,294.385 1717.46,298.486 1700.56,306.689L1693.09,288.086C1701,283.789 1709.67,280.42 1719.09,277.979C1728.52,275.537 1737.97,274.316 1747.44,274.316C1766.58,274.316 1780.76,278.564 1789.99,287.061C1799.22,295.557 1803.84,309.18 1803.84,327.93L1803.84,437.5L1785.82,437.5ZM1730.89,420.361C1746.02,420.361 1757.91,416.211 1766.56,407.91C1775.2,399.609 1779.52,387.988 1779.52,373.047L1779.52,358.545L1755.2,359.57C1735.87,360.254 1721.93,363.257 1713.38,368.579C1704.84,373.901 1700.56,382.178 1700.56,393.408C1700.56,402.197 1703.23,408.887 1708.55,413.477C1713.87,418.066 1721.32,420.361 1730.89,420.361Z" style="fill:rgb(78,81,85);fill-rule:nonzero;"/>
        </g>
        <g transform="matrix(0.0920677,0,0,0.0796265,291.578,181.494)">
            <path d="M566.311,378.011L583.116,378.011C591.01,378.011 596.72,379.191 600.247,381.551C603.773,383.911 605.536,387.641 605.536,392.741C605.536,396.267 604.553,399.177 602.586,401.469C600.62,403.761 597.751,405.246 593.98,405.925L593.98,406.331C603.014,407.878 607.53,412.625 607.53,420.573C607.53,425.89 605.733,430.04 602.139,433.024C598.544,436.008 593.519,437.5 587.063,437.5L566.311,437.5L566.311,378.011ZM573.228,403.483L584.622,403.483C589.504,403.483 593.017,402.717 595.16,401.184C597.303,399.651 598.375,397.068 598.375,393.433C598.375,390.096 597.181,387.689 594.794,386.21C592.407,384.732 588.609,383.993 583.401,383.993L573.228,383.993L573.228,403.483ZM573.228,409.342L573.228,431.6L585.639,431.6C590.44,431.6 594.055,430.671 596.483,428.813C598.911,426.955 600.125,424.045 600.125,420.085C600.125,416.395 598.883,413.683 596.401,411.947C593.919,410.211 590.142,409.342 585.069,409.342L573.228,409.342Z" style="fill:rgb(44,115,148);fill-rule:nonzero;"/>
            <path d="M626.044,437.5L619.29,437.5L619.29,392.904L626.044,392.904L626.044,437.5ZM618.72,380.819C618.72,379.272 619.1,378.14 619.859,377.421C620.619,376.702 621.568,376.343 622.708,376.343C623.793,376.343 624.728,376.709 625.515,377.441C626.302,378.174 626.695,379.3 626.695,380.819C626.695,382.338 626.302,383.47 625.515,384.216C624.728,384.962 623.793,385.335 622.708,385.335C621.568,385.335 620.619,384.962 619.859,384.216C619.1,383.47 618.72,382.338 618.72,380.819Z" style="fill:rgb(44,115,148);fill-rule:nonzero;"/>
            <path d="M678.86,415.161C678.86,422.431 677.029,428.107 673.367,432.19C669.705,436.273 664.645,438.314 658.189,438.314C654.202,438.314 650.662,437.378 647.569,435.506C644.477,433.634 642.09,430.949 640.408,427.45C638.726,423.95 637.885,419.854 637.885,415.161C637.885,407.891 639.702,402.228 643.337,398.173C646.972,394.118 652.018,392.09 658.474,392.09C664.713,392.09 669.671,394.165 673.346,398.315C677.022,402.466 678.86,408.081 678.86,415.161ZM644.884,415.161C644.884,420.858 646.023,425.198 648.302,428.182C650.58,431.166 653.93,432.658 658.352,432.658C662.774,432.658 666.131,431.173 668.423,428.202C670.715,425.232 671.861,420.885 671.861,415.161C671.861,409.492 670.715,405.185 668.423,402.242C666.131,399.299 662.747,397.827 658.271,397.827C653.849,397.827 650.512,399.278 648.261,402.181C646.009,405.084 644.884,409.41 644.884,415.161Z" style="fill:rgb(44,115,148);fill-rule:nonzero;"/>
            <path d="M747.545,437.5L747.545,408.488C747.545,404.934 746.785,402.269 745.266,400.492C743.747,398.716 741.387,397.827 738.186,397.827C733.981,397.827 730.875,399.034 728.868,401.449C726.861,403.863 725.857,407.579 725.857,412.598L725.857,437.5L719.102,437.5L719.102,408.488C719.102,404.934 718.343,402.269 716.824,400.492C715.305,398.716 712.931,397.827 709.703,397.827C705.471,397.827 702.372,399.095 700.405,401.632C698.439,404.168 697.455,408.325 697.455,414.103L697.455,437.5L690.701,437.5L690.701,392.904L696.194,392.904L697.292,399.007L697.618,399.007C698.893,396.837 700.69,395.142 703.009,393.921C705.329,392.7 707.926,392.09 710.802,392.09C717.773,392.09 722.33,394.613 724.473,399.658L724.799,399.658C726.128,397.325 728.054,395.481 730.577,394.124C733.1,392.768 735.975,392.09 739.203,392.09C744.249,392.09 748.026,393.385 750.535,395.976C753.045,398.566 754.299,402.71 754.299,408.407L754.299,437.5L747.545,437.5Z" style="fill:rgb(44,115,148);fill-rule:nonzero;"/>
            <path d="M787.055,438.314C780.463,438.314 775.262,436.306 771.45,432.292C767.639,428.277 765.733,422.702 765.733,415.568C765.733,408.379 767.503,402.669 771.043,398.438C774.583,394.206 779.337,392.09 785.305,392.09C790.893,392.09 795.315,393.928 798.57,397.603C801.825,401.279 803.453,406.128 803.453,412.15L803.453,416.423L772.732,416.423C772.868,421.658 774.19,425.632 776.699,428.345C779.208,431.057 782.742,432.414 787.299,432.414C792.1,432.414 796.848,431.41 801.541,429.403L801.541,435.425C799.153,436.456 796.895,437.195 794.766,437.642C792.636,438.09 790.066,438.314 787.055,438.314ZM785.224,397.746C781.643,397.746 778.788,398.912 776.659,401.245C774.529,403.578 773.274,406.806 772.895,410.929L796.21,410.929C796.21,406.67 795.261,403.409 793.362,401.143C791.463,398.878 788.75,397.746 785.224,397.746Z" style="fill:rgb(44,115,148);fill-rule:nonzero;"/>
            <path d="M832.791,438.314C826.334,438.314 821.336,436.327 817.796,432.353C814.256,428.379 812.486,422.757 812.486,415.487C812.486,408.027 814.283,402.262 817.878,398.193C821.472,394.124 826.592,392.09 833.238,392.09C835.381,392.09 837.524,392.32 839.667,392.782C841.81,393.243 843.492,393.785 844.713,394.409L842.638,400.147C841.146,399.55 839.518,399.055 837.755,398.661C835.991,398.268 834.432,398.071 833.075,398.071C824.015,398.071 819.485,403.849 819.485,415.405C819.485,420.885 820.59,425.09 822.801,428.019C825.012,430.949 828.287,432.414 832.628,432.414C836.344,432.414 840.155,431.614 844.062,430.013L844.062,435.994C841.078,437.541 837.321,438.314 832.791,438.314Z" style="fill:rgb(44,115,148);fill-rule:nonzero;"/>
            <path d="M885.159,437.5L885.159,408.651C885.159,405.016 884.331,402.303 882.677,400.513C881.022,398.722 878.431,397.827 874.905,397.827C870.212,397.827 866.787,399.102 864.631,401.652C862.474,404.202 861.396,408.379 861.396,414.185L861.396,437.5L854.641,437.5L854.641,374.186L861.396,374.186L861.396,393.351C861.396,395.657 861.287,397.569 861.07,399.089L861.477,399.089C862.806,396.946 864.698,395.257 867.153,394.023C869.608,392.788 872.409,392.171 875.556,392.171C881.008,392.171 885.098,393.467 887.824,396.057C890.55,398.648 891.913,402.764 891.913,408.407L891.913,437.5L885.159,437.5Z" style="fill:rgb(44,115,148);fill-rule:nonzero;"/>
            <path d="M933.214,437.5L931.871,431.152L931.545,431.152C929.321,433.946 927.103,435.839 924.893,436.829C922.682,437.819 919.922,438.314 916.612,438.314C912.19,438.314 908.725,437.175 906.216,434.896C903.707,432.617 902.452,429.376 902.452,425.171C902.452,416.165 909.654,411.445 924.058,411.011L931.627,410.767L931.627,408C931.627,404.5 930.874,401.917 929.368,400.248C927.863,398.58 925.455,397.746 922.146,397.746C918.43,397.746 914.225,398.885 909.532,401.164L907.457,395.996C909.654,394.803 912.062,393.867 914.679,393.189C917.297,392.51 919.922,392.171 922.553,392.171C927.87,392.171 931.81,393.351 934.373,395.711C936.937,398.071 938.219,401.855 938.219,407.064L938.219,437.5L933.214,437.5ZM917.955,432.739C922.16,432.739 925.462,431.586 927.863,429.281C930.264,426.975 931.464,423.747 931.464,419.596L931.464,415.568L924.709,415.853C919.338,416.043 915.466,416.877 913.092,418.355C910.719,419.834 909.532,422.133 909.532,425.252C909.532,427.694 910.271,429.552 911.75,430.827C913.228,432.102 915.297,432.739 917.955,432.739Z" style="fill:rgb(44,115,148);fill-rule:nonzero;"/>
            <path d="M982.652,437.5L982.652,408.651C982.652,405.016 981.825,402.303 980.17,400.513C978.515,398.722 975.925,397.827 972.398,397.827C967.732,397.827 964.315,399.089 962.144,401.611C959.974,404.134 958.889,408.298 958.889,414.103L958.889,437.5L952.135,437.5L952.135,392.904L957.628,392.904L958.726,399.007L959.052,399.007C960.435,396.81 962.375,395.108 964.871,393.901C967.366,392.693 970.147,392.09 973.212,392.09C978.583,392.09 982.625,393.385 985.338,395.976C988.05,398.566 989.407,402.71 989.407,408.407L989.407,437.5L982.652,437.5Z" style="fill:rgb(44,115,148);fill-rule:nonzero;"/>
            <path d="M1010.04,437.5L1003.28,437.5L1003.28,392.904L1010.04,392.904L1010.04,437.5ZM1002.71,380.819C1002.71,379.272 1003.09,378.14 1003.85,377.421C1004.61,376.702 1005.56,376.343 1006.7,376.343C1007.78,376.343 1008.72,376.709 1009.51,377.441C1010.29,378.174 1010.69,379.3 1010.69,380.819C1010.69,382.338 1010.29,383.47 1009.51,384.216C1008.72,384.962 1007.78,385.335 1006.7,385.335C1005.56,385.335 1004.61,384.962 1003.85,384.216C1003.09,383.47 1002.71,382.338 1002.71,380.819Z" style="fill:rgb(44,115,148);fill-rule:nonzero;"/>
            <path d="M1042.18,438.314C1035.73,438.314 1030.73,436.327 1027.19,432.353C1023.65,428.379 1021.88,422.757 1021.88,415.487C1021.88,408.027 1023.68,402.262 1027.27,398.193C1030.86,394.124 1035.98,392.09 1042.63,392.09C1044.77,392.09 1046.91,392.32 1049.06,392.782C1051.2,393.243 1052.88,393.785 1054.1,394.409L1052.03,400.147C1050.54,399.55 1048.91,399.055 1047.15,398.661C1045.38,398.268 1043.82,398.071 1042.47,398.071C1033.41,398.071 1028.88,403.849 1028.88,415.405C1028.88,420.885 1029.98,425.09 1032.19,428.019C1034.4,430.949 1037.68,432.414 1042.02,432.414C1045.74,432.414 1049.55,431.614 1053.45,430.013L1053.45,435.994C1050.47,437.541 1046.71,438.314 1042.18,438.314Z" style="fill:rgb(44,115,148);fill-rule:nonzero;"/>
            <path d="M1091.46,437.5L1090.12,431.152L1089.79,431.152C1087.57,433.946 1085.35,435.839 1083.14,436.829C1080.93,437.819 1078.16,438.314 1074.86,438.314C1070.43,438.314 1066.97,437.175 1064.46,434.896C1061.95,432.617 1060.7,429.376 1060.7,425.171C1060.7,416.165 1067.9,411.445 1082.3,411.011L1089.87,410.767L1089.87,408C1089.87,404.5 1089.12,401.917 1087.61,400.248C1086.11,398.58 1083.7,397.746 1080.39,397.746C1076.67,397.746 1072.47,398.885 1067.78,401.164L1065.7,395.996C1067.9,394.803 1070.31,393.867 1072.92,393.189C1075.54,392.51 1078.16,392.171 1080.8,392.171C1086.11,392.171 1090.05,393.351 1092.62,395.711C1095.18,398.071 1096.46,401.855 1096.46,407.064L1096.46,437.5L1091.46,437.5ZM1076.2,432.739C1080.4,432.739 1083.71,431.586 1086.11,429.281C1088.51,426.975 1089.71,423.747 1089.71,419.596L1089.71,415.568L1082.95,415.853C1077.58,416.043 1073.71,416.877 1071.34,418.355C1068.96,419.834 1067.78,422.133 1067.78,425.252C1067.78,427.694 1068.52,429.552 1069.99,430.827C1071.47,432.102 1073.54,432.739 1076.2,432.739Z" style="fill:rgb(44,115,148);fill-rule:nonzero;"/>
            <rect x="1110.38" y="374.186" width="6.755" height="63.314" style="fill:rgb(44,115,148);fill-rule:nonzero;"/>
            <path d="M1180.53,437.5L1179.18,431.152L1178.86,431.152C1176.63,433.946 1174.42,435.839 1172.21,436.829C1170,437.819 1167.24,438.314 1163.93,438.314C1159.51,438.314 1156.04,437.175 1153.53,434.896C1151.02,432.617 1149.77,429.376 1149.77,425.171C1149.77,416.165 1156.97,411.445 1171.37,411.011L1178.94,410.767L1178.94,408C1178.94,404.5 1178.19,401.917 1176.68,400.248C1175.18,398.58 1172.77,397.746 1169.46,397.746C1165.74,397.746 1161.54,398.885 1156.85,401.164L1154.77,395.996C1156.97,394.803 1159.38,393.867 1161.99,393.189C1164.61,392.51 1167.24,392.171 1169.87,392.171C1175.18,392.171 1179.12,393.351 1181.69,395.711C1184.25,398.071 1185.53,401.855 1185.53,407.064L1185.53,437.5L1180.53,437.5ZM1165.27,432.739C1169.47,432.739 1172.78,431.586 1175.18,429.281C1177.58,426.975 1178.78,423.747 1178.78,419.596L1178.78,415.568L1172.02,415.853C1166.65,416.043 1162.78,416.877 1160.41,418.355C1158.03,419.834 1156.85,422.133 1156.85,425.252C1156.85,427.694 1157.59,429.552 1159.06,430.827C1160.54,432.102 1162.61,432.739 1165.27,432.739Z" style="fill:rgb(44,115,148);fill-rule:nonzero;"/>
            <path d="M1229.97,437.5L1229.97,408.651C1229.97,405.016 1229.14,402.303 1227.49,400.513C1225.83,398.722 1223.24,397.827 1219.71,397.827C1215.05,397.827 1211.63,399.089 1209.46,401.611C1207.29,404.134 1206.2,408.298 1206.2,414.103L1206.2,437.5L1199.45,437.5L1199.45,392.904L1204.94,392.904L1206.04,399.007L1206.37,399.007C1207.75,396.81 1209.69,395.108 1212.18,393.901C1214.68,392.693 1217.46,392.09 1220.53,392.09C1225.9,392.09 1229.94,393.385 1232.65,395.976C1235.37,398.566 1236.72,402.71 1236.72,408.407L1236.72,437.5L1229.97,437.5Z" style="fill:rgb(44,115,148);fill-rule:nonzero;"/>
            <path d="M1278.02,437.5L1276.68,431.152L1276.35,431.152C1274.13,433.946 1271.91,435.839 1269.7,436.829C1267.49,437.819 1264.73,438.314 1261.42,438.314C1257,438.314 1253.53,437.175 1251.02,434.896C1248.52,432.617 1247.26,429.376 1247.26,425.171C1247.26,416.165 1254.46,411.445 1268.87,411.011L1276.43,410.767L1276.43,408C1276.43,404.5 1275.68,401.917 1274.18,400.248C1272.67,398.58 1270.26,397.746 1266.95,397.746C1263.24,397.746 1259.03,398.885 1254.34,401.164L1252.27,395.996C1254.46,394.803 1256.87,393.867 1259.49,393.189C1262.11,392.51 1264.73,392.171 1267.36,392.171C1272.68,392.171 1276.62,393.351 1279.18,395.711C1281.75,398.071 1283.03,401.855 1283.03,407.064L1283.03,437.5L1278.02,437.5ZM1262.76,432.739C1266.97,432.739 1270.27,431.586 1272.67,429.281C1275.07,426.975 1276.27,423.747 1276.27,419.596L1276.27,415.568L1269.52,415.853C1264.15,416.043 1260.27,416.877 1257.9,418.355C1255.53,419.834 1254.34,422.133 1254.34,425.252C1254.34,427.694 1255.08,429.552 1256.56,430.827C1258.04,432.102 1260.1,432.739 1262.76,432.739Z" style="fill:rgb(44,115,148);fill-rule:nonzero;"/>
            <rect x="1296.94" y="374.186" width="6.755" height="63.314" style="fill:rgb(44,115,148);fill-rule:nonzero;"/>
            <path d="M1310.94,392.904L1318.18,392.904L1327.95,418.335C1330.09,424.14 1331.42,428.331 1331.94,430.908L1332.26,430.908C1332.61,429.525 1333.35,427.158 1334.48,423.808C1335.61,420.458 1339.29,410.156 1345.53,392.904L1352.77,392.904L1333.6,443.685C1331.7,448.703 1329.49,452.264 1326.95,454.366C1324.41,456.468 1321.3,457.52 1317.61,457.52C1315.55,457.52 1313.52,457.289 1311.51,456.828L1311.51,451.416C1313,451.742 1314.67,451.904 1316.51,451.904C1321.15,451.904 1324.46,449.3 1326.44,444.092L1328.92,437.744L1310.94,392.904Z" style="fill:rgb(44,115,148);fill-rule:nonzero;"/>
            <path d="M1388.78,425.334C1388.78,429.484 1387.23,432.685 1384.14,434.937C1381.05,437.188 1376.71,438.314 1371.12,438.314C1365.21,438.314 1360.6,437.378 1357.29,435.506L1357.29,429.24C1359.43,430.325 1361.73,431.179 1364.18,431.803C1366.64,432.427 1369.01,432.739 1371.28,432.739C1374.81,432.739 1377.52,432.176 1379.42,431.051C1381.32,429.925 1382.27,428.209 1382.27,425.903C1382.27,424.167 1381.52,422.682 1380.01,421.448C1378.51,420.214 1375.57,418.755 1371.2,417.074C1367.05,415.527 1364.1,414.178 1362.35,413.025C1360.6,411.872 1359.3,410.563 1358.45,409.098C1357.59,407.633 1357.16,405.884 1357.16,403.849C1357.16,400.214 1358.64,397.346 1361.6,395.243C1364.56,393.141 1368.61,392.09 1373.77,392.09C1378.57,392.09 1383.26,393.066 1387.84,395.02L1385.44,400.513C1380.97,398.668 1376.91,397.746 1373.28,397.746C1370.08,397.746 1367.66,398.248 1366.03,399.251C1364.41,400.255 1363.59,401.638 1363.59,403.402C1363.59,404.595 1363.9,405.613 1364.51,406.453C1365.12,407.294 1366.1,408.095 1367.46,408.854C1368.82,409.614 1371.42,410.712 1375.27,412.15C1380.56,414.076 1384.13,416.016 1385.99,417.969C1387.85,419.922 1388.78,422.377 1388.78,425.334Z" style="fill:rgb(44,115,148);fill-rule:nonzero;"/>
            <path d="M1406.52,437.5L1399.77,437.5L1399.77,392.904L1406.52,392.904L1406.52,437.5ZM1399.2,380.819C1399.2,379.272 1399.58,378.14 1400.34,377.421C1401.1,376.702 1402.05,376.343 1403.18,376.343C1404.27,376.343 1405.2,376.709 1405.99,377.441C1406.78,378.174 1407.17,379.3 1407.17,380.819C1407.17,382.338 1406.78,383.47 1405.99,384.216C1405.2,384.962 1404.27,385.335 1403.18,385.335C1402.05,385.335 1401.1,384.962 1400.34,384.216C1399.58,383.47 1399.2,382.338 1399.2,380.819Z" style="fill:rgb(44,115,148);fill-rule:nonzero;"/>
            <path d="M1449.61,425.334C1449.61,429.484 1448.07,432.685 1444.97,434.937C1441.88,437.188 1437.54,438.314 1431.95,438.314C1426.04,438.314 1421.43,437.378 1418.12,435.506L1418.12,429.24C1420.26,430.325 1422.56,431.179 1425.02,431.803C1427.47,432.427 1429.84,432.739 1432.12,432.739C1435.64,432.739 1438.35,432.176 1440.25,431.051C1442.15,429.925 1443.1,428.209 1443.1,425.903C1443.1,424.167 1442.35,422.682 1440.84,421.448C1439.34,420.214 1436.4,418.755 1432.03,417.074C1427.88,415.527 1424.93,414.178 1423.18,413.025C1421.43,411.872 1420.13,410.563 1419.28,409.098C1418.42,407.633 1418,405.884 1418,403.849C1418,400.214 1419.47,397.346 1422.43,395.243C1425.39,393.141 1429.44,392.09 1434.6,392.09C1439.4,392.09 1444.09,393.066 1448.68,395.02L1446.28,400.513C1441.8,398.668 1437.74,397.746 1434.11,397.746C1430.91,397.746 1428.49,398.248 1426.87,399.251C1425.24,400.255 1424.42,401.638 1424.42,403.402C1424.42,404.595 1424.73,405.613 1425.34,406.453C1425.95,407.294 1426.93,408.095 1428.29,408.854C1429.65,409.614 1432.25,410.712 1436.1,412.15C1441.39,414.076 1444.97,416.016 1446.83,417.969C1448.68,419.922 1449.61,422.377 1449.61,425.334Z" style="fill:rgb(44,115,148);fill-rule:nonzero;"/>
        </g>
        <g transform="matrix(1,0,0,1,0.876731,4.05009e-13)">
            <g id="SvgjsG3442" transform="matrix(0.416972,0,0,0.360626,261.721,181.862)">
                <circle cx="50" cy="50" r="50" style="fill:rgb(44,115,148);"/>
            </g>
            <g id="SvgjsG3443" transform="matrix(0.353479,0,0,0.305713,264.972,184.684)">
                <path d="M68.1,35.7C64.5,24.4 57,17.4 48.6,17.4C39.9,17.4 32.3,25.1 28.9,36.3C15.4,39.1 6.4,44.5 6.4,50.9C6.4,55.5 11,59.7 19.4,62.8L18.8,64.7L24.6,63.4L20.6,59L20,60.9C12.6,58.2 8.3,54.5 8.3,50.9C8.3,45.8 16.3,41.1 28.1,38.5C27.2,42.1 26.7,46 26.7,50C26.7,68 36.5,82.6 48.5,82.6C57.9,82.6 66.2,73.6 69.1,60.4L74.1,60.9L69.3,50L62.3,59.7L67.2,60.2C64.4,72.3 56.9,80.6 48.6,80.6C37.7,80.6 28.8,66.9 28.8,50C28.8,45.8 29.4,41.7 30.4,38C36.3,36.9 43,36.2 50,36.2C72.5,36.2 91.6,42.9 91.6,50.8C91.6,54.5 87.3,58.2 79.7,60.9C79.2,61.1 78.9,61.7 79.1,62.2C79.3,62.7 79.9,63 80.4,62.8C88.9,59.7 93.6,55.4 93.6,50.8C93.6,44 83.3,38.3 68.1,35.7ZM31.1,35.8C34.4,26 41,19.4 48.6,19.4C55.8,19.4 62.5,25.6 65.9,35.3C61,34.6 55.6,34.3 50,34.3C43.2,34.3 36.8,34.8 31.1,35.8Z" style="fill:white;fill-rule:nonzero;"/>
            </g>
        </g>
    </g>
</svg>
