<svg xmlns="http://www.w3.org/2000/svg" width="128" height="128" viewBox="0 0 51200 51200" fill-rule="evenodd" stroke-linejoin="round" stroke-miterlimit="1.41420996"><path d="M36215.28 17214.34c-2111.06-6625.7-6509.1-10730.1-11434.92-10730.1-5101.73 0-9558.42 4514.85-11552.2 11081.9C5311.67 19207.9 34 22374.16 34 26126.76c0 2697.18 2697.47 5159.83 7623.28 6977.5l-351.84 1114.05 3401.16-762.25-2345.62-2579.9-351.84 1114.05c-4339.4-1583.13-6860.95-3752.6-6860.95-5863.44 0-2990.35 4691.25-5746.17 11610.84-7270.66-527.77 2110.84-820.97 4397.58-820.97 6742.95 0 10554.2 5746.78 19114.8 12783.66 19114.8 5512.22 0 10379.4-5277.1 12079.97-13016.83l2932.03 293.17-2814.75-6391.15-4104.84 5687.54 2873.4 293.17c-1641.94 7094.76-6039.98 11961.4-10907.16 11961.4-6391.83 0-11610.84-8032.9-11610.84-17942.12 0-2462.64 351.84-4866.65 938.25-7036.13 3459.8-644.98 7388.72-1055.42 11493.56-1055.42 13194.14 0 24394.5 3928.5 24394.5 8560.62 0 2169.47-2521.55 4338.94-6978.24 5922.07-293.2 117.27-469.13 469.08-351.84 762.25s469.13 469.08 762.33 351.8c4984.45-1817.67 7740.56-4338.94 7740.56-7036.13 0-3987.14-6040-7329.3-14953.36-8853.8zm-21697.03 58.63c1935.14-5746.17 5805.42-9616.04 10262.1-9616.04 4222.12 0 8151.05 3635.33 10144.83 9322.87-2873.4-410.44-6039.98-586.34-9323.86-586.34-3987.56 0-7740.56 293.17-11083.08 879.52z" fill="#fff" fill-rule="nonzero"/></svg>